<svg xmlns="http://www.w3.org/2000/svg"><defs><symbol id="angular" viewBox="0 0 256 272"><title>angular</title>
  <path d="M.1 45.522L125.908.697l129.196 44.028-20.919 166.45-108.277 59.966-106.583-59.169L.1 45.522z" fill="#E23237"/>
  <path d="M255.104 44.725L125.908.697v270.444l108.277-59.866 20.919-166.55z" fill="#B52E31"/>
  <path d="M126.107 32.274L47.714 206.693l29.285-.498 15.739-39.347h70.325l17.233 39.845 27.99.498-82.179-174.917zm.2 55.882l26.496 55.383h-49.806l23.31-55.383z" fill="#FFF"/>
</symbol><symbol id="css" viewBox="0 0 124 141.53"><title>css</title><path d="M10.383 126.892L0 0l124 .255-10.979 126.637-50.553 14.638z" fill="#1b73ba"/><path d="M62.468 129.275V12.085l51.064.17-9.106 104.85z" fill="#1c88c7"/><path d="M100.851 27.064H22.298l2.128 15.318h37.276l-36.68 15.745 2.127 14.808h54.043l-1.958 20.68-18.298 3.575-16.595-4.255-1.277-11.745H27.83l2.042 24.426 32.681 9.106 31.32-9.957 4-47.745H64.765l36.085-14.978z" fill="#fff"/></symbol><symbol id="django" viewBox="0 0 256 256"><title>django</title>
    <g>
        <rect fill="#092E20" x="0" y="0" width="256" height="256" rx="28">
</rect>
        <path d="M186.377012,94.197636 L186.377012,160.424478 C186.377012,183.243286 184.707519,194.187745 179.699037,203.649406 C175.060358,212.741266 168.937684,218.490548 156.323731,224.798721 L129.794937,212.183571 C142.410087,206.247593 148.531564,201.05481 152.427049,193.074749 C156.509231,184.91278 157.808923,175.451119 157.808923,150.593015 L157.808923,94.197636 L186.377012,94.197636 Z M140.928486,50.0787207 L140.928486,182.316986 C126.272844,185.099476 115.512688,186.212472 103.826231,186.212472 C68.9487718,186.212472 50.7686431,170.445031 50.7686431,140.205054 C50.7686431,111.079269 70.0629644,92.1583404 99.9295492,92.1583404 C104.567032,92.1583404 108.091519,92.5281423 112.359199,93.6411381 L112.359199,50.0787207 L140.928486,50.0787207 Z M102.713236,115.160254 C88.243093,115.160254 79.8944275,124.065418 79.8944275,139.647359 C79.8944275,154.860696 87.8720944,163.208164 102.527736,163.208164 C105.680028,163.208164 108.278215,163.022665 112.359199,162.467364 L112.359199,116.643052 C109.020212,115.531253 106.237722,115.160254 102.713236,115.160254 Z M186.377012,50.2307105 L186.377012,79.5419941 L157.808923,79.5419941 L157.808923,50.2307105 L186.377012,50.2307105 Z" fill="#FFFFFD">
</path>
    </g>
</symbol><symbol id="external-link" viewBox="0 0 24 24"><title>external-link</title><path d="M 5 3 C 3.9069372 3 3 3.9069372 3 5 L 3 19 C 3 20.093063 3.9069372 21 5 21 L 19 21 C 20.093063 21 21 20.093063 21 19 L 21 12 L 19 12 L 19 19 L 5 19 L 5 5 L 12 5 L 12 3 L 5 3 z M 14 3 L 14 5 L 17.585938 5 L 8.2929688 14.292969 L 9.7070312 15.707031 L 19 6.4140625 L 19 10 L 21 10 L 21 3 L 14 3 z"/></symbol><symbol id="gatsby" viewBox="0 0 2500 2500"><title>gatsby</title><path d="m1250 0c-690.4 0-1250 559.6-1250 1250s559.6 1250 1250 1250 1250-559.6 1250-1250-559.6-1250-1250-1250zm-981.4 1263 968.4 968.4c-531.8-6.9-961.5-436.6-968.4-968.4zm1201.1 943.9-1176.6-1176.6c99.8-436.3 490.3-761.9 956.9-761.9 326.1 0 615.1 159.1 793.6 403.9l-135.9 119.9c-144.8-207.6-385.4-343.5-657.7-343.5-346.7 0-642 220.2-753.6 528.4l1026.5 1026.4c249.3-90.3 441-300.7 505.2-561.3h-425.4v-192.2h629c-.1 466.6-325.7 857.1-762 956.9z" fill="#744c9e"/></symbol><symbol id="git" viewBox="0 0 256 256"><title>git</title><path d="M251.172 116.594L139.4 4.828c-6.433-6.437-16.873-6.437-23.314 0l-23.21 23.21 29.443 29.443c6.842-2.312 14.688-.761 20.142 4.693 5.48 5.489 7.02 13.402 4.652 20.266l28.375 28.376c6.865-2.365 14.786-.835 20.269 4.657 7.663 7.66 7.663 20.075 0 27.74-7.665 7.666-20.08 7.666-27.749 0-5.764-5.77-7.188-14.235-4.27-21.336l-26.462-26.462-.003 69.637a19.82 19.82 0 0 1 5.188 3.71c7.663 7.66 7.663 20.076 0 27.747-7.665 7.662-20.086 7.662-27.74 0-7.663-7.671-7.663-20.086 0-27.746a19.654 19.654 0 0 1 6.421-4.281V94.196a19.378 19.378 0 0 1-6.421-4.281c-5.806-5.798-7.202-14.317-4.227-21.446L81.47 39.442l-76.64 76.635c-6.44 6.443-6.44 16.884 0 23.322l111.774 111.768c6.435 6.438 16.873 6.438 23.316 0l111.251-111.249c6.438-6.44 6.438-16.887 0-23.324" fill="#DE4C36"/></symbol><symbol id="html" viewBox="0 0 124 141.53199999999998"><title>html</title><path d="M10.383 126.894L0 0l124 .255-10.979 126.639-50.553 14.638z" fill="#e34f26"/><path d="M62.468 129.277V12.085l51.064.17-9.106 104.851z" fill="#ef652a"/><path d="M99.49 41.362l1.446-15.49H22.383l4.34 47.49h54.213L78.81 93.617l-17.362 4.68-17.617-5.106-.936-12.085H27.319l2.128 24.681 32 8.936 32.255-8.936 4.34-48.17H41.107L39.49 41.362z" fill="#fff"/></symbol><symbol id="jasmine" viewBox="0 0 256 255"><title>jasmine</title><g fill="#8A4182"><path d="M118.267 105.334h19.795l4.918-6.733V45.874h-29.627v52.733l4.914 6.727M105.509 128.851l6.115-18.717-4.919-6.73L56.271 87.11l-9.154 28.016 50.44 16.296 7.952-2.57M124.06 148.187l-16.012-11.57-7.96 2.572-31.168 42.66 23.968 17.313 31.172-42.66v-8.315M148.285 136.614l-16.016 11.57.004 8.32 31.169 42.658 23.969-17.314-31.175-42.663-7.95-2.57M144.702 110.13l6.118 18.72 7.958 2.569 50.435-16.293-9.157-28.018-50.436 16.297-4.918 6.725"/><path d="M128.17.106C57.71.106.384 57.1.384 127.152c0 70.078 57.326 127.087 127.788 127.087 70.454 0 127.774-57.009 127.774-127.087 0-70.053-57.32-127.046-127.774-127.046zm0 25.725c56.27 0 101.9 45.357 101.9 101.32 0 55.983-45.63 101.36-101.9 101.36-56.287 0-101.912-45.377-101.912-101.36 0-55.963 45.625-101.32 101.913-101.32z"/><path d="M205.565 155.391l-38.338-12.387 2.535-7.765 38.338 12.387-2.535 7.765M156.67 94.19l-6.645-4.798 23.693-32.429 6.644 4.799-23.693 32.428M100.072 93.895l-23.69-32.43 6.644-4.798 23.69 32.428-6.644 4.8M50.608 154.907l-2.536-7.765 38.334-12.382 2.537 7.765-38.335 12.382M123.807 208.159h8.211v-40.085h-8.21v40.085z"/></g></symbol><symbol id="javascript" viewBox="0 0 1052 1052"><title>javascript</title><path fill="#f0db4f" d="M0 0h1052v1052H0z"/><path d="M965.9 801.1c-7.7-48-39-88.3-131.7-125.9-32.2-14.8-68.1-25.399-78.8-49.8-3.8-14.2-4.3-22.2-1.9-30.8 6.9-27.9 40.2-36.6 66.6-28.6 17 5.7 33.1 18.801 42.8 39.7 45.4-29.399 45.3-29.2 77-49.399-11.6-18-17.8-26.301-25.4-34-27.3-30.5-64.5-46.2-124-45-10.3 1.3-20.699 2.699-31 4-29.699 7.5-58 23.1-74.6 44-49.8 56.5-35.6 155.399 25 196.1 59.7 44.8 147.4 55 158.6 96.9 10.9 51.3-37.699 67.899-86 62-35.6-7.4-55.399-25.5-76.8-58.4-39.399 22.8-39.399 22.8-79.899 46.1 9.6 21 19.699 30.5 35.8 48.7 76.2 77.3 266.899 73.5 301.1-43.5 1.399-4.001 10.6-30.801 3.199-72.101zm-394-317.6h-98.4c0 85-.399 169.4-.399 254.4 0 54.1 2.8 103.7-6 118.9-14.4 29.899-51.7 26.2-68.7 20.399-17.3-8.5-26.1-20.6-36.3-37.699-2.8-4.9-4.9-8.7-5.601-9-26.699 16.3-53.3 32.699-80 49 13.301 27.3 32.9 51 58 66.399 37.5 22.5 87.9 29.4 140.601 17.3 34.3-10 63.899-30.699 79.399-62.199 22.4-41.3 17.6-91.3 17.4-146.6.5-90.2 0-180.4 0-270.9z" fill="#323330"/></symbol><symbol id="jest" viewBox="-165.83095323455666 -227.12219430273237 515.6590368124253 797.3960759087976"><title>jest</title><path d="M239.553 138.96c0-14.508-11.762-26.27-26.27-26.27-.934 0-1.854.05-2.762.146l36.082-106.42H93.267l36.032 106.327a26.318 26.318 0 0 0-1.597-.052c-14.508 0-26.27 11.76-26.27 26.27 0 11.727 7.686 21.656 18.293 25.034-5.602 9.704-12.652 18.445-20.656 25.997-10.884 10.267-23.34 18.053-36.812 22.85-16.04-8.24-23.614-26.565-16.78-42.632.772-1.815 1.56-3.654 2.313-5.485 11.62-2.712 20.28-13.129 20.28-25.576 0-14.509-11.762-26.27-26.271-26.27s-26.27 11.761-26.27 26.27c0 8.897 4.426 16.756 11.193 21.508-6.502 14.804-16.06 30.298-19.038 48.255-3.569 21.52-.012 44.364 18.601 57.265 43.348 30.044 90.402-18.625 140.014-30.86 17.98-4.433 37.717-3.719 53.558-12.893 11.896-6.89 19.739-18.309 21.964-31.128 2.2-12.664-1.006-25.273-8.378-35.497a26.158 26.158 0 0 0 6.11-16.839" fill="#99425b"/><path d="M235.5 190.198c-1.932 11.13-8.806 20.851-18.858 26.674-9.371 5.427-20.6 7.047-32.49 8.761-6.369.918-12.955 1.869-19.389 3.455-17.012 4.195-33.49 12.38-49.424 20.295-31.89 15.84-59.43 29.518-85.398 11.52-19.022-13.183-18.144-37.575-15.928-50.941 2.054-12.384 7.607-23.789 12.976-34.818a796.621 796.621 0 0 0 2.722-5.634 32.453 32.453 0 0 0 8.443 2.118c-5.466 18.039 3.13 37.653 21.171 46.921l2.47 1.269 2.614-.931c14.263-5.08 27.406-13.23 39.063-24.229 7.535-7.109 14.014-14.974 19.339-23.378a32.8 32.8 0 0 0 4.891.367c16.559 0 30.271-12.379 32.393-28.367 6.778-.248 13.977-.25 20.794-.002 2.12 15.99 15.834 28.37 32.393 28.37 6.924 0 13.346-2.17 18.637-5.856 3.673 7.519 5.044 15.979 3.581 24.406zM41.8 119.295c10.948 0 19.854 8.907 19.854 19.855 0 3.932-1.154 7.599-3.135 10.687-3.3 5.147-8.91 8.675-15.355 9.115-.451.03-.906.052-1.364.052-2.44 0-4.777-.445-6.938-1.253a19.967 19.967 0 0 1-10.305-8.777 19.725 19.725 0 0 1-2.612-9.824c0-10.948 8.907-19.855 19.855-19.855zm66.049 19.666c0-9.947 7.353-18.206 16.907-19.634.962-.145 1.946-.22 2.947-.22 6.365 0 12.032 3.015 15.666 7.687a19.88 19.88 0 0 1 2.318 3.765 19.73 19.73 0 0 1 1.87 8.402c0 1.587-.192 3.13-.545 4.61-1.935 8.1-8.842 14.292-17.306 15.144-.658.066-1.326.1-2.003.1a19.734 19.734 0 0 1-10.76-3.181c-5.466-3.541-9.094-9.69-9.094-16.673zm82.865-23.61a32.721 32.721 0 0 0-8.991 15.117 304.792 304.792 0 0 0-22.458 0c-1.68-6.232-5.162-11.73-9.847-15.906l20.545-41.542zM102.216 12.834h135.437l-31.989 94.345a32.479 32.479 0 0 0-4.051 1.255l-31.6-64.463-31.69 64.078a32.502 32.502 0 0 0-4.226-1.139zm130.92 126.128c0 1.99-.297 3.912-.844 5.727a19.933 19.933 0 0 1-7.653 10.545 19.74 19.74 0 0 1-11.357 3.582c-9.167 0-16.9-6.247-19.174-14.707a19.803 19.803 0 0 1-.68-5.147c0-2.714.548-5.302 1.538-7.66a19.848 19.848 0 0 1 1.878-3.442c3.573-5.274 9.602-8.752 16.438-8.752.627 0 1.245.032 1.858.09 10.08.939 17.997 9.442 17.997 19.764zm12.833 0c0-15.958-11.498-29.273-26.642-32.117L255.553 0H84.318L120.6 107.061c-14.618 3.253-25.583 16.316-25.583 31.9 0 11.702 6.184 21.98 15.452 27.756-4.458 6.642-9.744 12.892-15.802 18.608-9.608 9.063-20.311 15.937-31.85 20.46-11.623-7.301-16.536-21.07-11.434-33.064l.4-.94.75-1.764c12.766-4.453 21.953-16.603 21.953-30.867 0-18.024-14.663-32.687-32.686-32.687S9.112 121.126 9.112 139.15c0 9.097 3.74 17.335 9.758 23.267a552.73 552.73 0 0 1-3.418 7.11c-5.503 11.301-11.739 24.11-14.098 38.335-4.684 28.25 2.872 50.833 21.277 63.588 11.168 7.74 22.51 10.784 33.923 10.784 21.49 0 43.23-10.797 64.493-21.359 15.313-7.605 31.148-15.47 46.789-19.328 5.82-1.435 11.808-2.299 18.148-3.213 12.573-1.814 25.573-3.689 37.089-10.358 13.349-7.732 22.486-20.702 25.07-35.582 2.218-12.775-.451-25.57-6.961-36.422a32.488 32.488 0 0 0 4.787-17.011z" fill="#fff"/></symbol><symbol id="karma" viewBox="0 0 256 198"><title>karma</title><path d="M154.565 138.602l39.246 58.547h62.043l-70.31-103.883-30.979 45.336M29.492 169.994l28.736-27.07 45.942 54.225L74.678 88.375l-24.9 40.962-20.286 40.657" fill="#429F87"/><path d="M29.492 169.994l45.186-81.62-28.728 27.084L0 61.23l29.492 108.764M249.938.603h-62.043l-37.999 56.144V.603H92.985v58.229l30.344 111.834 7.071 26.483h19.496v-49.138L249.938.603" fill="#56C5A8"/></symbol><symbol id="nodejs" viewBox="0 0 256 282"><title>nodejs</title><g fill="#8CC84B"><path d="M116.504 3.58c6.962-3.985 16.03-4.003 22.986 0 34.995 19.774 70.001 39.517 104.99 59.303 6.581 3.707 10.983 11.031 10.916 18.614v118.968c.049 7.897-4.788 15.396-11.731 19.019-34.88 19.665-69.742 39.354-104.616 59.019-7.106 4.063-16.356 3.75-23.24-.646-10.457-6.062-20.932-12.094-31.39-18.15-2.137-1.274-4.546-2.288-6.055-4.36 1.334-1.798 3.719-2.022 5.657-2.807 4.365-1.388 8.374-3.616 12.384-5.778 1.014-.694 2.252-.428 3.224.193 8.942 5.127 17.805 10.403 26.777 15.481 1.914 1.105 3.852-.362 5.488-1.274 34.228-19.345 68.498-38.617 102.72-57.968 1.268-.61 1.969-1.956 1.866-3.345.024-39.245.006-78.497.012-117.742.145-1.576-.767-3.025-2.192-3.67-34.759-19.575-69.5-39.18-104.253-58.76a3.621 3.621 0 0 0-4.094-.006C91.2 39.257 56.465 58.88 21.712 78.454c-1.42.646-2.373 2.071-2.204 3.653.006 39.245 0 78.497 0 117.748a3.329 3.329 0 0 0 1.89 3.303c9.274 5.259 18.56 10.481 27.84 15.722 5.228 2.814 11.647 4.486 17.407 2.33 5.083-1.823 8.646-7.01 8.549-12.407.048-39.016-.024-78.038.036-117.048-.127-1.732 1.516-3.163 3.2-3 4.456-.03 8.918-.06 13.374.012 1.86-.042 3.14 1.823 2.91 3.568-.018 39.263.048 78.527-.03 117.79.012 10.464-4.287 21.85-13.966 26.97-11.924 6.177-26.662 4.867-38.442-1.056-10.198-5.09-19.93-11.097-29.947-16.55C5.368 215.886.555 208.357.604 200.466V81.497c-.073-7.74 4.504-15.197 11.29-18.85C46.768 42.966 81.636 23.27 116.504 3.58z"/><path d="M146.928 85.99c15.21-.979 31.493-.58 45.18 6.913 10.597 5.742 16.472 17.793 16.659 29.566-.296 1.588-1.956 2.464-3.472 2.355-4.413-.006-8.827.06-13.24-.03-1.872.072-2.96-1.654-3.195-3.309-1.268-5.633-4.34-11.212-9.642-13.929-8.139-4.075-17.576-3.87-26.451-3.785-6.479.344-13.446.905-18.935 4.715-4.214 2.886-5.494 8.712-3.99 13.404 1.418 3.369 5.307 4.456 8.489 5.458 18.33 4.794 37.754 4.317 55.734 10.626 7.444 2.572 14.726 7.572 17.274 15.366 3.333 10.446 1.872 22.932-5.56 31.318-6.027 6.901-14.805 10.657-23.56 12.697-11.647 2.597-23.734 2.663-35.562 1.51-11.122-1.268-22.696-4.19-31.282-11.768-7.342-6.375-10.928-16.308-10.572-25.895.085-1.619 1.697-2.748 3.248-2.615 4.444-.036 8.888-.048 13.332.006 1.775-.127 3.091 1.407 3.182 3.08.82 5.367 2.837 11 7.517 14.182 9.032 5.827 20.365 5.428 30.707 5.591 8.568-.38 18.186-.495 25.178-6.158 3.689-3.23 4.782-8.634 3.785-13.283-1.08-3.925-5.186-5.754-8.712-6.95-18.095-5.724-37.736-3.647-55.656-10.12-7.275-2.571-14.31-7.432-17.105-14.906-3.9-10.578-2.113-23.662 6.098-31.765 8.006-8.06 19.563-11.164 30.551-12.275z"/></g></symbol><symbol id="python" viewBox="0 0 32 32"><title>python</title>
<path fill-rule="evenodd" clip-rule="evenodd" d="M13.0164 2C10.8193 2 9.03825 3.72453 9.03825 5.85185V8.51852H15.9235V9.25926H5.97814C3.78107 9.25926 2 10.9838 2 13.1111L2 18.8889C2 21.0162 3.78107 22.7407 5.97814 22.7407H8.27322V19.4815C8.27322 17.3542 10.0543 15.6296 12.2514 15.6296H19.5956C21.4547 15.6296 22.9617 14.1704 22.9617 12.3704V5.85185C22.9617 3.72453 21.1807 2 18.9836 2H13.0164ZM12.0984 6.74074C12.8589 6.74074 13.4754 6.14378 13.4754 5.40741C13.4754 4.67103 12.8589 4.07407 12.0984 4.07407C11.3378 4.07407 10.7213 4.67103 10.7213 5.40741C10.7213 6.14378 11.3378 6.74074 12.0984 6.74074Z" fill="#4574b6"/>
<path fill-rule="evenodd" clip-rule="evenodd" d="M18.9834 30C21.1805 30 22.9616 28.2755 22.9616 26.1482V23.4815L16.0763 23.4815L16.0763 22.7408L26.0217 22.7408C28.2188 22.7408 29.9998 21.0162 29.9998 18.8889V13.1111C29.9998 10.9838 28.2188 9.25928 26.0217 9.25928L23.7266 9.25928V12.5185C23.7266 14.6459 21.9455 16.3704 19.7485 16.3704L12.4042 16.3704C10.5451 16.3704 9.03809 17.8296 9.03809 19.6296L9.03809 26.1482C9.03809 28.2755 10.8192 30 13.0162 30H18.9834ZM19.9015 25.2593C19.1409 25.2593 18.5244 25.8562 18.5244 26.5926C18.5244 27.329 19.1409 27.9259 19.9015 27.9259C20.662 27.9259 21.2785 27.329 21.2785 26.5926C21.2785 25.8562 20.662 25.2593 19.9015 25.2593Z" fill="#ffde57"/>
<defs>
<linearGradient id="paint0_linear_87_8204" x1="12.4809" y1="2" x2="12.4809" y2="22.7407" gradientUnits="userSpaceOnUse">
<stop stop-color="#327EBD"/>
<stop offset="1" stop-color="#1565A7"/>
</linearGradient>
<linearGradient id="paint1_linear_87_8204" x1="19.519" y1="9.25928" x2="19.519" y2="30" gradientUnits="userSpaceOnUse">
<stop stop-color="#FFDA4B"/>
<stop offset="1" stop-color="#F9C600"/>
</linearGradient>
</defs>
</symbol><symbol id="react" viewBox="175.7 78 490.6 436.9"><title>react</title><g fill="#61dafb"><path d="m666.3 296.5c0-32.5-40.7-63.3-103.1-82.4 14.4-63.6 8-114.2-20.2-130.4-6.5-3.8-14.1-5.6-22.4-5.6v22.3c4.6 0 8.3.9 11.4 2.6 13.6 7.8 19.5 37.5 14.9 75.7-1.1 9.4-2.9 19.3-5.1 29.4-19.6-4.8-41-8.5-63.5-10.9-13.5-18.5-27.5-35.3-41.6-50 32.6-30.3 63.2-46.9 84-46.9v-22.3c-27.5 0-63.5 19.6-99.9 53.6-36.4-33.8-72.4-53.2-99.9-53.2v22.3c20.7 0 51.4 16.5 84 46.6-14 14.7-28 31.4-41.3 49.9-22.6 2.4-44 6.1-63.6 11-2.3-10-4-19.7-5.2-29-4.7-38.2 1.1-67.9 14.6-75.8 3-1.8 6.9-2.6 11.5-2.6v-22.3c-8.4 0-16 1.8-22.6 5.6-28.1 16.2-34.4 66.7-19.9 130.1-62.2 19.2-102.7 49.9-102.7 82.3 0 32.5 40.7 63.3 103.1 82.4-14.4 63.6-8 114.2 20.2 130.4 6.5 3.8 14.1 5.6 22.5 5.6 27.5 0 63.5-19.6 99.9-53.6 36.4 33.8 72.4 53.2 99.9 53.2 8.4 0 16-1.8 22.6-5.6 28.1-16.2 34.4-66.7 19.9-130.1 62-19.1 102.5-49.9 102.5-82.3zm-130.2-66.7c-3.7 12.9-8.3 26.2-13.5 39.5-4.1-8-8.4-16-13.1-24-4.6-8-9.5-15.8-14.4-23.4 14.2 2.1 27.9 4.7 41 7.9zm-45.8 106.5c-7.8 13.5-15.8 26.3-24.1 38.2-14.9 1.3-30 2-45.2 2-15.1 0-30.2-.7-45-1.9-8.3-11.9-16.4-24.6-24.2-38-7.6-13.1-14.5-26.4-20.8-39.8 6.2-13.4 13.2-26.8 20.7-39.9 7.8-13.5 15.8-26.3 24.1-38.2 14.9-1.3 30-2 45.2-2 15.1 0 30.2.7 45 1.9 8.3 11.9 16.4 24.6 24.2 38 7.6 13.1 14.5 26.4 20.8 39.8-6.3 13.4-13.2 26.8-20.7 39.9zm32.3-13c5.4 13.4 10 26.8 13.8 39.8-13.1 3.2-26.9 5.9-41.2 8 4.9-7.7 9.8-15.6 14.4-23.7 4.6-8 8.9-16.1 13-24.1zm-101.4 106.7c-9.3-9.6-18.6-20.3-27.8-32 9 .4 18.2.7 27.5.7 9.4 0 18.7-.2 27.8-.7-9 11.7-18.3 22.4-27.5 32zm-74.4-58.9c-14.2-2.1-27.9-4.7-41-7.9 3.7-12.9 8.3-26.2 13.5-39.5 4.1 8 8.4 16 13.1 24s9.5 15.8 14.4 23.4zm73.9-208.1c9.3 9.6 18.6 20.3 27.8 32-9-.4-18.2-.7-27.5-.7-9.4 0-18.7.2-27.8.7 9-11.7 18.3-22.4 27.5-32zm-74 58.9c-4.9 7.7-9.8 15.6-14.4 23.7-4.6 8-8.9 16-13 24-5.4-13.4-10-26.8-13.8-39.8 13.1-3.1 26.9-5.8 41.2-7.9zm-90.5 125.2c-35.4-15.1-58.3-34.9-58.3-50.6s22.9-35.6 58.3-50.6c8.6-3.7 18-7 27.7-10.1 5.7 19.6 13.2 40 22.5 60.9-9.2 20.8-16.6 41.1-22.2 60.6-9.9-3.1-19.3-6.5-28-10.2zm53.8 142.9c-13.6-7.8-19.5-37.5-14.9-75.7 1.1-9.4 2.9-19.3 5.1-29.4 19.6 4.8 41 8.5 63.5 10.9 13.5 18.5 27.5 35.3 41.6 50-32.6 30.3-63.2 46.9-84 46.9-4.5-.1-8.3-1-11.3-2.7zm237.2-76.2c4.7 38.2-1.1 67.9-14.6 75.8-3 1.8-6.9 2.6-11.5 2.6-20.7 0-51.4-16.5-84-46.6 14-14.7 28-31.4 41.3-49.9 22.6-2.4 44-6.1 63.6-11 2.3 10.1 4.1 19.8 5.2 29.1zm38.5-66.7c-8.6 3.7-18 7-27.7 10.1-5.7-19.6-13.2-40-22.5-60.9 9.2-20.8 16.6-41.1 22.2-60.6 9.9 3.1 19.3 6.5 28.1 10.2 35.4 15.1 58.3 34.9 58.3 50.6-.1 15.7-23 35.6-58.4 50.6z"/><circle cx="420.9" cy="296.5" r="45.7"/></g></symbol><symbol id="sass" viewBox="0 0 512 384"><title>sass</title><path fill="#CF649A" d="M440.6 220.6c-17.9.101-33.4 4.4-46.4 10.801-4.8-9.5-9.6-17.801-10.399-24-.9-7.2-2-11.601-.9-20.2C384 178.6 389 166.4 389 165.4c-.101-.9-1.101-5.3-11.4-5.4s-19.2 2-20.2 4.7-3 8.9-4.3 15.3c-1.8 9.4-20.6 42.7-31.3 60.2-3.5-6.8-6.5-12.8-7.101-17.601-.899-7.199-2-11.6-.899-20.199 1.1-8.601 6.1-20.8 6.1-21.8-.1-.9-1.1-5.3-11.399-5.4-10.301-.1-19.2 2-20.2 4.7s-2.1 9.1-4.3 15.3C281.9 201.4 256.9 257 250.4 271.5c-3.3 7.4-6.199 13.3-8.3 17.3-2.1 4-.1.3-.3.7-1.8 3.4-2.8 5.3-2.8 5.3v.101c-1.4 2.5-2.9 4.899-3.601 4.899-.5 0-1.5-6.7.2-15.899 3.7-19.301 12.7-49.4 12.601-50.5 0-.5 1.699-5.801-5.801-8.5-7.3-2.7-9.899 1.8-10.5 1.8-.6 0-1.1 1.6-1.1 1.6s8.1-33.899-15.5-33.899c-14.8 0-35.2 16.1-45.3 30.8-6.4 3.5-20 10.899-34.4 18.8-5.5 3-11.2 6.2-16.6 9.1L117.9 251.9c-28.6-30.5-81.5-52.1-79.3-93.1.8-14.9 6-54.2 101.601-101.8 78.3-39 141-28.3 151.899-4.5 15.5 34-33.5 97.2-114.899 106.3-31 3.5-47.301-8.5-51.4-13-4.3-4.7-4.9-4.9-6.5-4-2.6 1.4-1 5.6 0 8.1 2.4 6.3 12.4 17.5 29.4 23.1 14.899 4.9 51.3 7.6 95.3-9.4 49.3-19.1 87.8-72.1 76.5-116.4-11.5-45.1-86.3-59.9-157-34.8C121.4 27.4 75.8 50.8 43 81.5 4 117.9-2.2 149.7.4 162.9c9.101 47.1 74 77.8 100 100.5-1.3.699-2.5 1.399-3.6 2-13 6.399-62.5 32.3-74.9 59.699-14 31 2.2 53.301 13 56.301 33.4 9.3 67.6-7.4 86.1-34.9 18.399-27.5 16.2-63.2 7.7-79.5l-.301-.6 10.2-6c6.601-3.9 13.101-7.5 18.8-10.601-3.199 8.7-5.5 19-6.699 34-1.4 17.601 5.8 40.4 15.3 49.4 4.2 3.899 9.2 4 12.3 4 11 0 16-9.101 21.5-20 6.8-13.3 12.8-28.7 12.8-28.7s-7.5 41.7 13 41.7c7.5 0 15-9.7 18.4-14.7v.1s.2-.3.6-1a36.13 36.13 0 0 0 1.2-1.899v-.2c3-5.2 9.7-17.1 19.7-36.8 12.899-25.4 25.3-57.2 25.3-57.2s1.2 7.8 4.9 20.6c2.199 7.601 6.999 15.9 10.699 24-3 4.2-4.8 6.601-4.8 6.601l.1.1c-2.399 3.2-5.1 6.601-7.899 10-10.2 12.2-22.4 26.101-24 30.101-1.9 4.699-1.5 8.199 2.2 11 2.7 2 7.5 2.399 12.6 2 9.2-.601 15.6-2.9 18.8-4.301 5-1.8 10.7-4.5 16.2-8.5 10-7.399 16.1-17.899 15.5-31.899-.3-7.7-2.8-15.3-5.9-22.5.9-1.3 1.801-2.601 2.7-4 15.8-23.101 28-48.5 28-48.5s1.2 7.8 4.9 20.6c1.899 6.5 5.7 13.601 9.1 20.601-14.8 12.1-24.1 26.1-27.3 35.3-5.9 17-1.3 24.7 7.4 26.5 3.899.8 9.5-1 13.699-2.8 5.2-1.7 11.5-4.601 17.301-8.9 10-7.4 19.6-17.7 19.1-31.6-.3-6.4-2-12.7-4.3-18.7 12.6-5.2 28.899-8.2 49.6-5.7 44.5 5.2 53.3 33 51.601 44.6-1.7 11.601-11 18-14.101 20-3.1 1.9-4.1 2.601-3.8 4 .4 2.101 1.8 2 4.5 1.601 3.7-.601 23.4-9.5 24.2-30.899 1.2-27.504-24.9-57.504-71.2-57.205zM97.4 336.3c-14.7 16.1-35.4 22.2-44.2 17-9.5-5.5-5.801-29.2 12.3-46.3 11-10.4 25.3-20 34.7-25.9 2.1-1.3 5.3-3.199 9.1-5.5.6-.399 1-.6 1-.6.7-.4 1.5-.9 2.3-1.4 6.7 24.4.3 45.8-15.2 62.7zm107.5-73.1c-5.1 12.5-15.9 44.6-22.4 42.8-5.601-1.5-9-25.8-1.101-49.8 4-12.101 12.5-26.5 17.5-32.101 8.101-9 16.9-12 19.101-8.3 2.6 4.801-9.9 39.601-13.1 47.401zm88.7 42.4c-2.2 1.101-4.2 1.9-5.1 1.301-.7-.4.899-1.9.899-1.9s11.1-11.9 15.5-17.4c2.5-3.199 5.5-6.899 8.7-11.1v1.2C313.6 292.1 299.8 301.7 293.6 305.6zm68.399-15.6c-1.6-1.2-1.399-4.9 4-16.5 2.101-4.6 6.9-12.3 15.2-19.6 1 3 1.601 5.899 1.5 8.6-.099 18-12.899 24.7-20.7 27.5z"/></symbol><symbol id="typescript" viewBox="0 0 400 400"><title>typescript</title><style>.st0{fill:#007acc}.st1{fill:#fff}</style><path class="st0" d="M0 200V0h400v400H0"/><path class="st1" d="M87.7 200.7V217h52v148h36.9V217h52v-16c0-9 0-16.3-.4-16.5 0-.3-31.7-.4-70.2-.4l-70 .3v16.4l-.3-.1zM321.4 184c10.2 2.4 18 7 25 14.3 3.7 4 9.2 11 9.6 12.8 0 .6-17.3 12.3-27.8 18.8-.4.3-2-1.4-3.6-4-5.2-7.4-10.5-10.6-18.8-11.2-12-.8-20 5.5-20 16 0 3.2.6 5 1.8 7.6 2.7 5.5 7.7 8.8 23.2 15.6 28.6 12.3 41 20.4 48.5 32 8.5 13 10.4 33.4 4.7 48.7-6.4 16.7-22 28-44.3 31.7-7 1.2-23 1-30.5-.3-16-3-31.3-11-40.7-21.3-3.7-4-10.8-14.7-10.4-15.4l3.8-2.4 15-8.7 11.3-6.6 2.6 3.5c3.3 5.2 10.7 12.2 15 14.6 13 6.7 30.4 5.8 39-2 3.7-3.4 5.3-7 5.3-12 0-4.6-.7-6.7-3-10.2-3.2-4.4-9.6-8-27.6-16-20.7-8.8-29.5-14.4-37.7-23-4.7-5.2-9-13.3-11-20-1.5-5.8-2-20-.6-25.7 4.3-20 19.4-34 41-38 7-1.4 23.5-.8 30.4 1l-.2.2z"/></symbol><symbol id="webpack" viewBox="0 0 1200 1200"><title>webpack</title><path fill="#fff" d="M600 0l530.3 300v600L600 1200 69.7 900V300z"/><path fill="#8ed6fb" d="M1035.6 879.3l-418.1 236.5V931.6L878 788.3l157.6 91zm28.6-25.9V358.8l-153 88.3V765l153 88.4zm-901.5 25.9l418.1 236.5V931.6L320.3 788.3l-157.6 91zm-28.6-25.9V358.8l153 88.3V765l-153 88.4zM152 326.8L580.8 84.2v178.1L306.1 413.4l-2.1 1.2-152-87.8zm894.3 0L617.5 84.2v178.1l274.7 151.1 2.1 1.2 152-87.8z"/><path fill="#1c78c0" d="m580.8 889.7l-257-141.3v-280l257 148.4v272.9m36.7 0l257-141.3v-280l-257 148.4v272.9m-276.3-453.7l258-141.9 258 141.9-258 149-258-149"/></symbol></defs></svg>